<svg width="42" height="42" viewBox="0 0 54 54" fill="none" xmlns="http://www.w3.org/2000/svg">
  <circle cx="26.6058" cy="26.6058" r="24.6058" stroke="white" stroke-width="4"/>
  <path d="M35.4016 16.1379C34.9581 16.1379 34.5329 16.3141 34.2193 16.6276C33.9058 16.9412 33.7296 17.3664 33.7296 17.8099V30.5L19.8692 16.6228C19.5543 16.308 19.1273 16.1311 18.6821 16.1311C18.2368 16.1311 17.8098 16.308 17.495 16.6228C17.1802 16.9376 17.0033 17.3646 17.0033 17.8099C17.0033 18.2551 17.1802 18.6821 17.495 18.997L31.3722 32.8574H18.6821C18.2387 32.8574 17.8134 33.0335 17.4998 33.3471C17.1863 33.6607 17.0101 34.0859 17.0101 34.5293C17.0101 34.9728 17.1863 35.398 17.4998 35.7116C17.8134 36.0251 18.2387 36.2013 18.6821 36.2013H35.4016C35.62 36.1987 35.8359 36.1532 36.0369 36.0675C36.4454 35.8979 36.7701 35.5732 36.9397 35.1647C37.0254 34.9637 37.0709 34.7478 37.0735 34.5293V17.8099C37.0735 17.3664 36.8974 16.9412 36.5838 16.6276C36.2702 16.3141 35.845 16.1379 35.4016 16.1379Z" fill="white"/>
</svg>
